<?xml version="1.0" standalone="no"?>
<!DOCTYPE svg PUBLIC "-//W3C//DTD SVG 20010904//EN"
 "http://www.w3.org/TR/2001/REC-SVG-20010904/DTD/svg10.dtd">
<svg version="1.0" xmlns="http://www.w3.org/2000/svg"
 width="500.000000pt" height="500.000000pt" viewBox="0 0 500.000000 500.000000"
 preserveAspectRatio="xMidYMid meet">
<metadata>
Created by potrace 1.14, written by Peter Selinger 2001-2017
</metadata>
<g transform="translate(0.000000,500.000000) scale(0.100000,-0.100000)"
fill="#000000" stroke="none">
<path d="M560 3373 c-8 -3 -34 -14 -57 -25 -79 -36 -108 -155 -60 -248 32 -65
94 -93 200 -92 143 1 215 56 222 169 9 130 -59 195 -210 199 -44 1 -87 0 -95
-3z"/>
<path d="M1187 3242 c-16 -3 -17 -62 -17 -788 l0 -784 213 0 213 0 -1 253 c0
138 1 258 3 265 4 11 122 86 127 80 1 -2 26 -50 55 -108 29 -58 65 -127 80
-155 15 -27 60 -114 100 -192 l73 -143 239 0 c132 0 238 3 236 8 -1 4 -21 39
-42 77 -201 356 -246 438 -246 443 0 3 -6 13 -14 21 -7 9 -29 45 -48 81 -19
36 -52 94 -72 130 -20 36 -42 75 -48 87 -11 22 34 90 428 646 43 61 51 77 37
78 -22 1 -423 1 -439 0 -6 -1 -22 -18 -35 -38 -45 -68 -221 -325 -299 -438
-42 -60 -88 -129 -101 -152 -13 -24 -26 -43 -29 -43 -3 0 -5 151 -4 335 0 297
-2 335 -15 336 -59 3 -381 3 -394 1z"/>
<path d="M3305 2904 c-106 -29 -195 -80 -230 -134 -11 -17 -27 -29 -35 -28 -8
2 -25 34 -40 76 l-24 72 -158 0 c-157 0 -158 0 -159 -22 -1 -30 -1 -1157 0
-1180 1 -17 18 -18 210 -18 l209 0 0 303 c0 167 3 328 7 358 17 144 57 217
133 240 83 25 148 -14 173 -104 8 -29 12 -163 13 -419 l1 -378 210 0 211 0 0
323 c1 365 4 409 38 489 31 73 128 116 197 88 34 -14 62 -51 74 -95 5 -16 10
-37 12 -45 2 -8 5 -183 6 -388 l1 -372 210 2 211 3 -1 440 c0 322 -4 455 -14
495 -49 210 -182 304 -420 296 -57 -2 -114 -10 -144 -20 -67 -24 -142 -72
-167 -107 -26 -37 -47 -37 -83 1 -81 86 -167 120 -316 125 -58 2 -114 2 -125
-1z"/>
<path d="M428 2233 c-3 -716 -1 -693 -59 -736 -29 -21 -65 -24 -145 -12 l-51
7 0 -161 0 -161 41 -11 c47 -13 238 -17 308 -7 116 17 237 106 286 211 39 84
42 136 42 844 l0 683 -210 0 -210 0 -2 -657z"/>
</g>
</svg>
